<?xml version="1.0" encoding="UTF-8"?>
<svg width="111.25mm" height="27.771mm" version="1.1" viewBox="0 0 111.25 27.771" xml:space="preserve" xmlns="http://www.w3.org/2000/svg"><g transform="translate(-86.047 -92.924)"><path d="m154.97 120.6c-1.7528-0.20309-3.2587-0.91691-4.5963-2.1787-0.73258-0.69108-1.2282-1.3774-1.6642-2.3044-0.42159-0.89634-0.4775-1.0858-0.33305-1.1284 0.2794-0.0824 2.4079-0.56054 2.4919-0.55977 0.0518 5.1e-4 0.21218 0.239 0.35636 0.53004 0.90772 1.8323 2.7499 2.9422 4.8834 2.9422 2.0086 0 3.6355-0.91744 4.399-2.4808 0.30036-0.61498 0.5073-1.568 0.4539-2.0904l-0.0269-0.26316-0.34381 0.25367c-0.89523 0.66052-1.9471 1.1283-2.9868 1.3284-0.72602 0.13969-2.115 0.1551-2.8742 0.0319-2.3952-0.38869-4.4724-1.9278-5.5378-4.1034-0.36596-0.74726-0.36536-0.73238-0.0783-1.9473 0.264-1.1174 0.31399-2.4238 0.13446-3.5137-0.24751-1.5025-0.25269-1.4117 0.12483-2.1865 0.97612-2.0033 2.5332-3.2698 4.7884-3.8949 0.37583-0.10417 0.86044-0.1409 1.8627-0.14115 1.1605-2.96e-4 1.4505 0.0274 2.0231 0.19321 0.91549 0.26509 1.8195 0.69614 2.4237 1.1556l0.50616 0.38494v-1.6919h2.6822l0.056 2.6035c0.0919 4.2725-0.0118 12.629-0.16678 13.441-0.59564 3.1202-3.1863 5.2954-6.7042 5.629-0.99742 0.0946-0.97865 0.0947-1.8736-9e-3zm2.8899-8.6878c1.6218-0.63394 2.7495-1.9495 3.1587-3.685 0.16459-0.69807 0.16397-2.253-1e-3 -2.9026-0.23647-0.93023-0.6878-1.7169-1.388-2.4193-1.0225-1.0257-2.0604-1.4487-3.5637-1.4526-2.3627-6e-3 -4.226 1.4888-4.7788 3.8342-0.19082 0.80964-0.17322 2.3501 0.0362 3.169 0.45013 1.76 1.7314 3.1121 3.4302 3.6197 0.39568 0.11823 0.72329 0.14508 1.4817 0.12145 0.83804-0.0261 1.0644-0.0658 1.6248-0.28486zm-33.711 2.8051c-1.2751-0.34264-1.9566-1.1817-2.2089-2.7197-0.0639-0.38931-0.0849-2.1509-0.0654-5.4842l0.0286-4.9107h-2.794l-0.0233-1.3314-0.0233-1.3314 2.8406-0.04644 0.0464-2.921h2.7053v2.9729l1.5452-0.0099c0.84984-0.0054 1.5928-0.0076 1.651-0.0048 0.0798 0.0038 0.10583 0.32415 0.10583 1.3046v1.2995l-0.90217 0.0552c-0.49619 0.0304-1.2406 0.0552-1.6543 0.0552h-0.75216l0.0245 4.7625c0.0272 5.2904 0.0105 5.1352 0.59922 5.5723 0.36953 0.27438 1.222 0.32586 1.9834 0.11977 0.4649-0.12584 0.56173-0.13067 0.62578-0.0312 0.0417 0.0647 0.0663 0.65064 0.0546 1.3021l-0.0211 1.1844-0.762 0.14587c-0.93448 0.17888-2.37 0.18677-3.0036 0.0165zm51.02-0.0394c-0.81015-0.11197-2.0153-0.53011-2.7193-0.94351-0.74666-0.43845-1.9452-1.6275-2.3599-2.3411-0.76729-1.3205-1.0669-2.3898-1.13-4.0332-0.0564-1.4674 0.0639-2.4442 0.43513-3.5359 0.74908-2.2026 2.4767-3.9291 4.6211-4.6183 0.79523-0.25556 1.4489-0.35482 2.3364-0.35482 2.4548 0 4.628 1.127 5.8658 3.0421 0.35853 0.55471 0.83376 1.6661 0.74877 1.7511-0.0687 0.0687-2.1869 0.7091-2.3474 0.70966-0.0783 2.5e-4 -0.20622-0.20376-0.33163-0.52873-0.36938-0.95725-1.443-1.8622-2.6255-2.2131-0.58484-0.17352-1.762-0.17695-2.4144-7e-3 -1.5792 0.41132-2.8658 1.6548-3.4074 3.293-0.20487 0.61973-0.22648 0.80724-0.22996 1.9963-4e-3 1.4645 0.0461 1.7206 0.54196 2.7517 1.2728 2.6468 4.917 3.4441 7.072 1.5472 0.46493-0.40924 1.0117-1.2083 1.1557-1.6888 0.0534-0.1782 0.15035-0.324 0.21546-0.324 0.0651 0 0.43056 0.12814 0.8121 0.28476 0.38154 0.15663 0.89373 0.35019 1.1382 0.43014 0.24447 0.08 0.4445 0.18291 0.4445 0.22878 0 0.0459-0.13246 0.37011-0.29435 0.72051-0.87927 1.9031-2.3739 3.1405-4.4261 3.6645-0.7865 0.20081-2.2812 0.28218-3.1013 0.16884zm13.227-0.0343c-0.97056-0.1589-1.5962-0.34451-2.3148-0.6867-1.5415-0.73412-2.6369-2.1196-2.8048-3.5475l-0.0549-0.46703h2.7368l0.0843 0.23284c0.36288 1.0021 1.2541 1.6387 2.7038 1.9314 0.56443 0.11397 0.98084 0.13518 1.9473 0.0992 1.4-0.0521 2.2241-0.25875 2.9074-0.7289 0.70309-0.48374 1.0463-1.3693 0.77887-2.0094-0.38082-0.91144-0.96777-1.143-4.3833-1.7296-1.1291-0.19392-2.4149-0.44359-2.8573-0.55482-2.0358-0.51188-3.0949-1.4698-3.4433-3.1143-0.38121-1.7994 0.51304-3.5307 2.3119-4.476 1.915-1.0063 5.046-1.0857 7.3967-0.18748 1.6695 0.63791 2.9242 2.1729 3.1225 3.82 0.0357 0.29605 0.0462 0.5569 0.0234 0.57969-0.0228 0.0228-0.60387 0.0414-1.2913 0.0414h-1.2499l-0.13136-0.45188c-0.37088-1.2758-1.8494-2.0268-3.987-2.0253-1.202 8.7e-4 -2.049 0.17339-2.6157 0.53277-0.56596 0.35892-0.74537 0.68639-0.70664 1.2898 0.0624 0.97151 0.75387 1.3545 3.2377 1.7932 1.5944 0.28158 3.1536 0.59584 3.7976 0.76539 2.2536 0.59331 3.5282 1.9026 3.6659 3.7657 0.17634 2.385-1.569 4.3486-4.4528 5.0096-0.97634 0.22379-3.383 0.28803-4.4214 0.11802zm-97.057-0.12605c-1.5769-0.34066-2.6586-0.91971-3.6084-1.9317-0.82538-0.87935-1.4292-2.3108-1.4292-3.3882v-0.33025l0.90217-0.0552c0.49619-0.0304 1.0601-0.0552 1.2531-0.0552h0.35089l0.10141 0.49099c0.31157 1.5085 1.6185 2.7011 3.2732 2.9868 0.82069 0.14171 2.2334 0.0568 2.9282-0.17603 1.0929-0.36622 1.7949-0.90976 2.2092-1.7104 0.26437-0.51092 0.32439-1.6911 0.11402-2.242-0.27894-0.73039-0.93841-1.2887-1.9218-1.6271-0.25874-0.089-1.3225-0.36043-2.3639-0.60313s-2.2745-0.55314-2.7401-0.68987c-2.9617-0.86958-4.3185-2.4015-4.2987-4.8536 0.01638-2.0301 1.1262-3.7834 2.9441-4.6512 1.3413-0.64027 2.5006-0.85073 4.3434-0.78847 1.4384 0.0486 2.3091 0.26103 3.4036 0.83046 1.861 0.96819 3.1237 2.8706 3.1312 4.7173l0.0015 0.3621-2.483-0.0468-0.11115-0.54535c-0.23343-1.1454-0.84808-1.932-1.9215-2.4591-1.8401-0.90356-4.7097-0.57457-5.9828 0.6859-0.53348 0.52818-0.7173 0.99232-0.71706 1.8105 2.28e-4 0.78906 0.17008 1.1967 0.68821 1.6516 0.6234 0.54736 1.3902 0.8036 4.9394 1.6506 2.734 0.65248 3.9068 1.1509 4.8057 2.0425 1.4175 1.4058 1.6867 3.6071 0.69392 5.6743-0.71966 1.4985-2.2568 2.6618-4.1873 3.1689-1.0111 0.26557-3.269 0.30827-4.318 0.0817zm48.142 0.0361c-0.87634-0.20021-1.7344-0.65763-2.0782-1.1079-0.49459-0.64774-0.66525-1.2212-0.61423-2.064 0.081-1.3382 0.75662-2.7769 2.0674-4.4027 0.85144-1.056 0.74-1.0257 1.513-0.41143 0.81266 0.64578 2.5765 2.4014 3.3905 3.3748 0.65177 0.77932 1.3182 1.7668 1.5227 2.2563l0.12829 0.30704 0.32772-0.45616c1.8692-2.6018 2.287-5.4988 1.1281-7.8222-0.50853-1.0195-1.4512-1.9119-2.3358-2.2111-0.51121-0.17295-1.4366-0.19116-2.0107-0.0396-0.63032 0.16643-1.5685 0.68093-2.2808 1.2508-1.153 0.92256-2.5664 2.764-3.3165 4.321-1.0008 2.0774-1.1607 3.6729-0.50814 5.0675 0.13995 0.29906 0.23298 0.54375 0.20674 0.54375-0.25099 0-1.6362-1.3352-2.1304-2.0535-0.41783-0.60729-0.92451-1.68-1.132-2.3964-0.16734-0.57794-0.19337-0.85068-0.18537-1.9424 8e-3 -1.1204 0.0363-1.3598 0.23857-2.0319 1.3476-4.4784 5.7908-6.8827 10.076-5.4523 2.6638 0.88917 4.4198 2.8561 5.005 5.6059 0.16496 0.77525 0.15774 2.4102-0.0143 3.2451-0.31183 1.513-1.0939 2.9355-2.3134 4.2077-0.93256 0.97284-2.0746 1.6852-3.3491 2.089-0.7698 0.24393-2.5224 0.30841-3.3352 0.1227zm-33.207-0.0441c-0.0708-0.044-0.61292-1.5036-3.6308-9.7741-0.64569-1.7695-1.3337-3.6364-1.5288-4.1487-0.19517-0.51224-0.38458-1.0266-0.4209-1.143-0.0363-0.11642-0.0931-0.27834-0.12625-0.35983-0.0559-0.13764 0.0415-0.14817 1.372-0.14817h1.4322l0.13411 0.40217c0.0738 0.22119 0.56065 1.6404 1.082 3.1538 0.52134 1.5134 1.415 4.1194 1.986 5.7911 0.57095 1.6717 1.0576 3.0052 1.0816 2.9633 0.0239-0.0418 0.23608-0.68566 0.47148-1.4307 1.8595-5.8855 2.9254-9.274 3.1492-10.012l0.2633-0.86783h2.6883l-0.21201 0.6985c-0.1166 0.38417-0.59268 1.8225-1.058 3.1962-0.46527 1.3737-1.4137 4.1931-2.1076 6.2653-0.69389 2.0722-1.3917 4.1296-1.5506 4.572l-0.28903 0.80433-1.3302 0.0423c-0.73159 0.0233-1.3643 0.0211-1.406-5e-3zm23.094 0.0331c-0.031-0.031-0.0564-4.9078-0.0564-10.837v-10.781h2.7093v21.675h-1.2982c-0.71402 0-1.3236-0.0254-1.3547-0.0564zm-14.45-7.8176v-7.7893h2.7093v15.579h-2.7093zm50.123 0v-7.7893h2.7093v15.579h-2.7093zm-50.123-10.922v-1.3547h2.7093v2.7093h-2.7093zm50.094 1.2982c-0.031-0.03105-0.0564-0.6216-0.0564-1.3123v-1.2559h2.794v2.6247h-1.3406c-0.7373 0-1.366-0.0254-1.397-0.05644z" fill="#2d5b8c"/></g></svg>
